<svg xmlns="http://www.w3.org/2000/svg" xmlns:xlink="http://www.w3.org/1999/xlink" width="414" height="768" viewBox="0 0 414 768">
  <defs>
    <linearGradient id="linear-gradient" x1="0.552" x2="0.5" y2="1.067" gradientUnits="objectBoundingBox">
      <stop offset="0" stop-color="#f93c64"/>
      <stop offset="1" stop-color="#f78b63"/>
    </linearGradient>
    <clipPath id="clip-_01_splash_1">
      <rect width="414" height="768"/>
    </clipPath>
  </defs>
  <g id="_01_splash_1" data-name="01 splash – 1" clip-path="url(#clip-_01_splash_1)">
    <rect width="414" height="768" fill="url(#linear-gradient)"/>
    <g id="сайт" transform="translate(48 277)">
      <rect id="Rectangle_699" data-name="Rectangle 699" width="20.712" height="15.497" transform="translate(19.893 5.29)" fill="#fefefe"/>
      <g id="_1735348413248">
        <path id="Path_1538" data-name="Path 1538" d="M38.891,16.167v2.161H22.128V16.167a8.382,8.382,0,0,1,16.763,0Zm22.053,7.674V18.328h-14.3V16.167a16.167,16.167,0,1,0-32.335,0v2.161H0V79.272H5.513v2.682H63.7V23.841Z" fill="#fefefe"/>
        <path id="Path_1539" data-name="Path 1539" d="M233.7,71.3h1.863v3.725L238.99,71.3h2.235L237.8,74.876l3.576,4.843h-2.235l-2.608-3.576-.969,1.043v2.533H233.7Z" transform="translate(-59.585 -18.179)" fill="#fff"/>
        <path id="Path_1540" data-name="Path 1540" d="M250.113,76.192,249,73.435l-1.118,2.757ZM248.176,71.2h1.714l3.576,8.493h-1.937l-.745-1.863h-3.576l-.745,1.863H244.6Z" transform="translate(-62.364 -18.153)" fill="#fff"/>
        <path id="Path_1541" data-name="Path 1541" d="M261.553,75.547a1.322,1.322,0,0,0,1.49-1.267c0-.82-.6-1.267-1.49-1.267h-1.416v2.533ZM258.275,71.3H261.7a2.881,2.881,0,0,1,3.2,2.98c0,1.937-1.49,2.98-3.427,2.98h-1.416v2.533H258.2V71.3Z" transform="translate(-65.831 -18.179)" fill="#fff"/>
        <path id="Path_1542" data-name="Path 1542" d="M270.833,73.014H268.3V71.3h7v1.714H272.7v6.705h-1.863Z" transform="translate(-68.406 -18.179)" fill="#fff"/>
        <path id="Path_1543" data-name="Path 1543" d="M282.739,76.192l-1.118-2.757L280.5,76.192ZM280.8,71.2h1.714l3.651,8.493h-1.937l-.745-1.863h-3.576l-.745,1.863H277.3Z" transform="translate(-70.701 -18.153)" fill="#fff"/>
        <path id="Path_1544" data-name="Path 1544" d="M233.7,90.8h1.863v3.651L238.99,90.8h2.235L237.8,94.376l3.576,4.843h-2.235l-2.608-3.576-.969.969v2.608H233.7Z" transform="translate(-59.585 -23.151)" fill="#fff"/>
        <path id="Path_1545" data-name="Path 1545" d="M252.346,90.8v8.419h-1.863v-6.78h-2.459v.671c0,4.992-.82,6.258-2.757,6.258-.3,0-.745-.075-.969-.075l.149-1.565h.3c.969,0,1.565-.671,1.565-5.215V90.8Z" transform="translate(-62.287 -23.151)" fill="#fff"/>
        <path id="Path_1546" data-name="Path 1546" d="M265.1,99.219h-1.863V93.631l-3.651,5.588H257.8V90.8h1.863v5.513l3.725-5.513H265.1Z" transform="translate(-65.729 -23.151)" fill="#fff"/>
        <path id="Path_1547" data-name="Path 1547" d="M270.3,90.8h6.333v1.639h-4.47v1.714h3.949v1.639h-3.949V97.58h4.545v1.639H270.3Z" transform="translate(-68.916 -23.151)" fill="#fff"/>
        <path id="Path_1548" data-name="Path 1548" d="M281.1,90.8h1.863v3.278h3.427V90.8h1.863v8.419H286.39V95.792h-3.427v3.427H281.1Z" transform="translate(-71.67 -23.151)" fill="#fff"/>
        <path id="Path_1549" data-name="Path 1549" d="M295.208,92.439H292.6V90.8h7v1.639H297.07v6.78h-1.863Z" transform="translate(-74.602 -23.151)" fill="#fff"/>
        <path id="Path_1550" data-name="Path 1550" d="M307.113,95.617,306,92.861l-1.118,2.757ZM305.176,90.7h1.714l3.576,8.493h-1.937l-.745-1.863h-3.576l-.745,1.863H301.6Z" transform="translate(-76.896 -23.125)" fill="#fff"/>
        <path id="Path_1551" data-name="Path 1551" d="M35.982,60.184H10.8V35.3H35.982Z" transform="translate(-2.754 -9)" fill="#ed70a7"/>
        <path id="Path_1552" data-name="Path 1552" d="M73.506,60.184H48.1V35.3H73.506Z" transform="translate(-12.264 -9)" fill="#90c470"/>
        <path id="Path_1553" data-name="Path 1553" d="M35.982,97.829H10.8V72.2H35.982Z" transform="translate(-2.754 -18.408)" fill="#87d1f2"/>
        <path id="Path_1554" data-name="Path 1554" d="M73.506,97.829H48.1V72.2H73.506Z" transform="translate(-12.264 -18.408)" fill="#fbc351"/>
        <path id="Path_1555" data-name="Path 1555" d="M386.649,51.247,378.677,28.3H371.9L364,51.247h5.811l5.513-16.912,5.513,16.912Z" transform="translate(-92.806 -7.215)" fill="#fff"/>
        <path id="Path_1556" data-name="Path 1556" d="M418.449,51.247,410.477,28.3h-6.705L395.8,51.247h5.811l5.513-16.912,5.513,16.912Z" transform="translate(-100.914 -7.215)" fill="#fff"/>
        <path id="Path_1557" data-name="Path 1557" d="M148.186,46.4h-4.1V42.158h4.1s2.235,0,2.235,2.086A2.2,2.2,0,0,1,148.186,46.4Zm-.671-13.187s2.235,0,2.235,1.937c0,2.012-2.235,2.012-2.235,2.012h-3.427V33.217Zm4.768,6.184s2.98-1.043,2.98-5.066c0-6.035-5.364-6.035-7.45-6.035H138.5V51.247h10.654s6.556,0,6.854-6.258C156.232,40.221,152.283,39.4,152.283,39.4Z" transform="translate(-35.312 -7.215)" fill="#fff"/>
        <path id="Path_1558" data-name="Path 1558" d="M207.662,38.507h-3.874V32.919h3.874a2.573,2.573,0,0,1,2.459,2.757A2.541,2.541,0,0,1,207.662,38.507Zm.372-10.207H198.2V51.247h5.588v-8.27h4.247s7.823,0,7.823-7C215.783,28.3,208.034,28.3,208.034,28.3Z" transform="translate(-50.533 -7.215)" fill="#fff"/>
        <path id="Path_1559" data-name="Path 1559" d="M172.442,42.754l2.831-9.015,2.831,9.015h-5.662Zm8.27,8.493h5.811L178.552,28.3h-6.78L163.8,51.247h5.811l1.192-3.8h8.791Z" transform="translate(-41.763 -7.215)" fill="#fff"/>
        <path id="Path_1560" data-name="Path 1560" d="M262.788,28.3V41.562L272.473,28.3h5.29V51.247h-5.588V37.911l-9.984,13.336H257.2V28.3Z" transform="translate(-65.576 -7.215)" fill="#fff"/>
        <path id="Path_1561" data-name="Path 1561" d="M310.445,28.3l-5.439,12-5.513-12h-5.886L291,51.247h6.109l1.416-13.783,4.619,10.505h3.651l4.694-10.505L312.9,51.247h6.035L316.331,28.3Z" transform="translate(-74.194 -7.215)" fill="#fff"/>
        <path id="Path_1562" data-name="Path 1562" d="M343.946,46.451a6.712,6.712,0,1,1,6.407-6.705A6.571,6.571,0,0,1,343.946,46.451Zm0-18.551a11.846,11.846,0,1,0,11.846,11.846A11.828,11.828,0,0,0,343.946,27.9Z" transform="translate(-84.673 -7.113)" fill="#fff"/>
        <path id="Path_1563" data-name="Path 1563" d="M111.588,51.247H106V28.3h5.588Z" transform="translate(-27.026 -7.215)" fill="#fff"/>
        <path id="Path_1564" data-name="Path 1564" d="M120.558,39.4l7.3-11.1h-6.407L114.3,39.774l7.3,11.474h6.854Z" transform="translate(-29.142 -7.215)" fill="#fff"/>
        <path id="Path_1565" data-name="Path 1565" d="M245.112,33.143V28.3H224.4v4.843h20.712Z" transform="translate(-57.213 -7.215)" fill="#fff"/>
        <path id="Path_1566" data-name="Path 1566" d="M234.6,34.8V52.9h5.588V36.812Z" transform="translate(-59.814 -8.873)" fill="#fff"/>
        <path id="Path_1567" data-name="Path 1567" d="M157.149,94.222l-7.9-23.022h-6.78L134.5,94.222h5.811l5.513-16.987,5.513,16.987Z" transform="translate(-34.292 -18.153)" fill="#fff"/>
        <path id="Path_1568" data-name="Path 1568" d="M111.588,94.222H106V71.2h5.588Z" transform="translate(-27.026 -18.153)" fill="#fff"/>
        <path id="Path_1569" data-name="Path 1569" d="M120.558,82.3l7.3-11.1h-6.407L114.3,82.748l7.3,11.474h6.854Z" transform="translate(-29.142 -18.153)" fill="#fff"/>
        <path id="Path_1570" data-name="Path 1570" d="M206.237,89.6h-3.874V84.015h3.874a2.584,2.584,0,0,1,2.533,2.831A2.658,2.658,0,0,1,206.237,89.6Zm.3-10.133h-4.247v-3.8h10.431V71.2H196.7V94.147h9.835s7.823,0,7.823-7.748C214.357,79.47,206.535,79.47,206.535,79.47Z" transform="translate(-50.151 -18.153)" fill="#fff"/>
        <path id="Path_1571" data-name="Path 1571" d="M180.982,71.2,170.7,94.222h5.588L187.612,71.2Z" transform="translate(-43.522 -18.153)" fill="#fff"/>
        <path id="Path_1572" data-name="Path 1572" d="M172.535,85.654l1.49-3.129L169.331,71.2H162.7l6.705,14.454Z" transform="translate(-41.482 -18.153)" fill="#fff"/>
        <path id="Path_1573" data-name="Path 1573" d="M6.157,50.486H30.519v7.748H18.375v2.086H15.023v8.791h9.238v5.737H6.157ZM30.519,24.41V34.915H18.673V40.13H15.023v8.642H6.157V24.41ZM20.461,17.034a10.878,10.878,0,1,1,21.755,0v4.619H20.461ZM49.22,37.97a2.379,2.379,0,0,1-4.47,0Zm-6.333-1.639,2.608-4.619h2.98l2.682,4.619ZM46.24,24.41V30H44.6L40.056,37.97h3.055a4.035,4.035,0,0,0,7.9,0h3.055L49.518,30H47.879V24.41h8.642V48.773H32.158V24.41ZM20.387,40.8V36.629H30.519v6.78H21.951Zm.671,4.321h9.462v3.725H16.736v-7H19.12ZM20.014,59.874H30.221v2.533H20.014Zm10.505,4.247V74.849H25.975V67.473H16.736V61.96h1.639v2.086H30.519Zm10.133-5.96V74.775H32.158V50.486H56.521v7.748H40.652ZM56.521,74.849H50.412V59.874h6.109ZM42.291,59.874h6.482V74.849H42.291Zm2.682-38.22V17.034a13.634,13.634,0,1,0-27.268,0v4.619H3.4V77.606H59.352V21.653Z" transform="translate(-0.867 -0.867)" fill="#1d1d1e"/>
        <path id="Path_1574" data-name="Path 1574" d="M60.9,90.788h1.639V89H60.9Z" transform="translate(-15.527 -22.692)" fill="#1d1d1e"/>
        <path id="Path_1575" data-name="Path 1575" d="M69.439,89H67.8v1.788h1.639Z" transform="translate(-17.286 -22.692)" fill="#1d1d1e"/>
      </g>
    </g>
  </g>
</svg>
