<svg xmlns="http://www.w3.org/2000/svg" xmlns:xlink="http://www.w3.org/1999/xlink" width="414" height="768" viewBox="0 0 414 768">
  <defs>
    <filter id="Rectangle_650" x="87" y="553" width="240" height="101.957" filterUnits="userSpaceOnUse">
      <feOffset dy="3" input="SourceAlpha"/>
      <feGaussianBlur stdDeviation="10" result="blur"/>
      <feFlood flood-opacity="0.082"/>
      <feComposite operator="in" in2="blur"/>
      <feComposite in="SourceGraphic"/>
    </filter>
    <filter id="ОТПРАВИТЬ" x="159" y="590" width="98" height="24" filterUnits="userSpaceOnUse">
      <feOffset dy="1" input="SourceAlpha"/>
      <feGaussianBlur stdDeviation="1" result="blur-2"/>
      <feFlood flood-opacity="0.161"/>
      <feComposite operator="in" in2="blur-2"/>
      <feComposite in="SourceGraphic"/>
    </filter>
    <clipPath id="clip-_17_address_3">
      <rect width="414" height="768"/>
    </clipPath>
  </defs>
  <g id="_17_address_3" data-name="17 address – 3" clip-path="url(#clip-_17_address_3)">
    <rect width="414" height="768" fill="#fff"/>
    <rect id="Rectangle_710" data-name="Rectangle 710" width="56" height="52" transform="translate(188 671)" fill="#fff"/>
    <text id="Title" transform="translate(188 71)" fill="#2d4057" font-size="20" font-family="Montserrat-Bold, Montserrat" font-weight="700" letter-spacing="-0.024em"><tspan x="-78.315" y="0">Заказать карту</tspan></text>
    <g id="Group_2478" data-name="Group 2478" transform="translate(16 57)">
      <path id="left-arrow" d="M7.176,4.909a.78.78,0,0,1,1.109,1.1L2.663,11.627H21.212A.781.781,0,0,1,22,12.4a.79.79,0,0,1-.787.787H2.663L8.284,18.8a.8.8,0,0,1,0,1.109.777.777,0,0,1-1.109,0L.224,12.958a.782.782,0,0,1,0-1.1Z" transform="translate(0.001 -4.676)" fill="#2d4057"/>
    </g>
    <g transform="matrix(1, 0, 0, 1, 0, 0)" filter="url(#Rectangle_650)">
      <rect id="Rectangle_650-2" data-name="Rectangle 650" width="180" height="41.957" rx="20.979" transform="translate(117 580)" fill="#f93c64"/>
    </g>
    <g transform="matrix(1, 0, 0, 1, 0, 0)" filter="url(#ОТПРАВИТЬ)">
      <text id="ОТПРАВИТЬ-2" data-name="ОТПРАВИТЬ" transform="translate(162 606)" fill="#fff" font-size="14" font-family="Montserrat-Regular, Montserrat"><tspan x="0" y="0">ОТПРАВИТЬ</tspan></text>
    </g>
    <g id="Rectangle_698" data-name="Rectangle 698" transform="translate(20 127)" fill="none" stroke="#f93c64" stroke-width="1">
      <rect width="371" height="426.774" rx="10" stroke="none"/>
      <rect x="0.5" y="0.5" width="370" height="425.774" rx="9.5" fill="none"/>
    </g>
    <text id="Фамилия" transform="translate(56 230.914)" fill="#2d4057" font-size="14" font-family="OpenSans-Regular, Open Sans" opacity="0.5"><tspan x="0" y="0">Фамилия</tspan></text>
    <text id="Имя" transform="translate(56 177.914)" fill="#2d4057" font-size="14" font-family="OpenSans-Regular, Open Sans" opacity="0.5"><tspan x="0" y="0">Имя</tspan></text>
    <line id="Line_33" data-name="Line 33" x2="316.299" transform="translate(50.5 241.414)" fill="none" stroke="#383838" stroke-width="0.1"/>
    <line id="Line_34" data-name="Line 34" x2="316.299" transform="translate(50.5 188.414)" fill="none" stroke="#383838" stroke-width="0.1"/>
    <text id="Город" transform="translate(56 337)" fill="#2d4057" font-size="14" font-family="OpenSans-Regular, Open Sans" opacity="0.5"><tspan x="0" y="0">Город</tspan></text>
    <text id="Адрес" transform="translate(56 390)" fill="#2d4057" font-size="14" font-family="OpenSans-Regular, Open Sans" opacity="0.5"><tspan x="0" y="0">Адрес</tspan></text>
    <text id="Телефон" transform="translate(56 442.914)" fill="#2d4057" font-size="14" font-family="OpenSans-Regular, Open Sans" opacity="0.5"><tspan x="0" y="0">Телефон</tspan></text>
    <text id="E-mail" transform="translate(56 495.914)" fill="#2d4057" font-size="14" font-family="OpenSans-Regular, Open Sans" opacity="0.5"><tspan x="0" y="0">E-mail</tspan></text>
    <text id="Дата_рождения" data-name="Дата рождения" transform="translate(56 283.914)" fill="#2d4057" font-size="14" font-family="OpenSans-Regular, Open Sans" opacity="0.5"><tspan x="0" y="0">Дата рождения</tspan></text>
    <line id="Line_30" data-name="Line 30" x2="316.299" transform="translate(50.5 347.414)" fill="none" stroke="#383838" stroke-width="0.1"/>
    <line id="Line_31" data-name="Line 31" x2="316.299" transform="translate(50.5 400.414)" fill="none" stroke="#383838" stroke-width="0.1"/>
    <line id="Line_29" data-name="Line 29" x2="316.299" transform="translate(50.5 453.414)" fill="none" stroke="#383838" stroke-width="0.1"/>
    <line id="Line_28" data-name="Line 28" x2="316.299" transform="translate(50.5 504.414)" fill="none" stroke="#383838" stroke-width="0.1"/>
    <line id="Line_32" data-name="Line 32" x2="316.299" transform="translate(50.5 294.414)" fill="none" stroke="#383838" stroke-width="0.1"/>
    <g id="Status_Bar" data-name="Status Bar" transform="translate(-3)">
      <g id="Battery" transform="translate(370 17)">
        <g id="Border" transform="translate(0 0.333)" fill="none" stroke="#000" stroke-miterlimit="10" stroke-width="1" opacity="0.35">
          <rect width="22" height="11.333" rx="2.667" stroke="none"/>
          <rect x="0.5" y="0.5" width="21" height="10.333" rx="2.167" fill="none"/>
        </g>
        <path id="Cap" d="M0,0V4A2.17,2.17,0,0,0,1.328,2,2.17,2.17,0,0,0,0,0" transform="translate(23 4)" opacity="0.4"/>
        <rect id="Capacity" width="18" height="7.333" rx="1.333" transform="translate(2 2.333)"/>
      </g>
      <path id="Wifi" d="M7.637,10.966a.313.313,0,0,1-.221-.093l-2-2.016a.313.313,0,0,1,.01-.456,3.421,3.421,0,0,1,4.419,0,.311.311,0,0,1,.1.226.315.315,0,0,1-.094.23l-2,2.016A.308.308,0,0,1,7.637,10.966Zm3.508-3.538a.312.312,0,0,1-.214-.085,4.9,4.9,0,0,0-6.585,0,.312.312,0,0,1-.214.085.308.308,0,0,1-.22-.091L2.758,6.17a.322.322,0,0,1,0-.459,7.158,7.158,0,0,1,9.752,0,.322.322,0,0,1,.1.229.326.326,0,0,1-.094.23L11.364,7.337A.309.309,0,0,1,11.145,7.428ZM13.8,4.743a.3.3,0,0,1-.214-.087,8.64,8.64,0,0,0-11.907,0,.3.3,0,0,1-.214.087.308.308,0,0,1-.22-.091L.094,3.486a.322.322,0,0,1,0-.456,10.9,10.9,0,0,1,15.08,0,.325.325,0,0,1,.1.228.319.319,0,0,1-.094.229L14.023,4.652A.307.307,0,0,1,13.8,4.743Z" transform="translate(349.694 17.331)"/>
      <path id="Cellular_Connection" data-name="Cellular Connection" d="M16,10.667H15a1,1,0,0,1-1-1V1a1,1,0,0,1,1-1h1a1,1,0,0,1,1,1V9.667A1,1,0,0,1,16,10.667Zm-4.667,0h-1a1,1,0,0,1-1-1V3.334a1,1,0,0,1,1-1h1a1,1,0,0,1,1,1V9.667A1,1,0,0,1,11.334,10.667Zm-4.667,0h-1a1,1,0,0,1-1-1v-4a1,1,0,0,1,1-1h1a1,1,0,0,1,1,1v4A1,1,0,0,1,6.666,10.667ZM2,10.667H1a1,1,0,0,1-1-1v-2a1,1,0,0,1,1-1H2a1,1,0,0,1,1,1v2A1,1,0,0,1,2,10.667Z" transform="translate(327.667 17.667)"/>
      <g id="Time_Style" data-name="Time Style" transform="translate(21 9)">
        <text id="_Time" data-name="↳ Time" transform="translate(0 5.33)" font-size="15" font-family="SFProText-Semibold, SF Pro Text" font-weight="600" letter-spacing="0em"><tspan x="10.893" y="14">9:41</tspan></text>
      </g>
    </g>
    <rect id="Rectangle_712" data-name="Rectangle 712" width="51" height="53" transform="translate(0 38)" fill="#fff" opacity="0"/>
  </g>
</svg>
