<svg xmlns="http://www.w3.org/2000/svg" xmlns:xlink="http://www.w3.org/1999/xlink" width="414" height="760" viewBox="0 0 414 760">
  <defs>
    <filter id="Rectangle_646" x="-10" y="100" width="431" height="486.774" filterUnits="userSpaceOnUse">
      <feOffset dy="3" input="SourceAlpha"/>
      <feGaussianBlur stdDeviation="10" result="blur"/>
      <feFlood flood-opacity="0.039"/>
      <feComposite operator="in" in2="blur"/>
      <feComposite in="SourceGraphic"/>
    </filter>
    <clipPath id="clip-_17_address_4">
      <rect width="414" height="760"/>
    </clipPath>
  </defs>
  <g id="_17_address_4" data-name="17 address – 4" clip-path="url(#clip-_17_address_4)">
    <rect width="414" height="760" fill="#f2f4f7"/>
    <rect id="Rectangle_711" data-name="Rectangle 711" width="86" height="52" transform="translate(146 650)" fill="#f2f4f7"/>
    <text id="Title" transform="translate(207 71)" fill="#2d4057" font-size="20" font-family="Montserrat-Bold, Montserrat" font-weight="700" letter-spacing="-0.024em"><tspan x="-48.453" y="0">Профиль</tspan></text>
    <g id="Group_2478" data-name="Group 2478" transform="translate(16 57)">
      <path id="left-arrow" d="M7.176,4.909a.78.78,0,0,1,1.109,1.1L2.663,11.627H21.212A.781.781,0,0,1,22,12.4a.79.79,0,0,1-.787.787H2.663L8.284,18.8a.8.8,0,0,1,0,1.109.777.777,0,0,1-1.109,0L.224,12.958a.782.782,0,0,1,0-1.1Z" transform="translate(0.001 -4.676)" fill="#2d4057"/>
    </g>
    <g transform="matrix(1, 0, 0, 1, 0, 0)" filter="url(#Rectangle_646)">
      <rect id="Rectangle_646-2" data-name="Rectangle 646" width="371" height="426.774" rx="10" transform="translate(20 127)" fill="#f9fafb"/>
    </g>
    <text id="Матвеев" transform="translate(56 230.914)" fill="#2d4057" font-size="14" font-family="OpenSans-Regular, Open Sans"><tspan x="0" y="0">Матвеев</tspan></text>
    <text id="Андрей" transform="translate(56 177.914)" fill="#2d4057" font-size="14" font-family="OpenSans-Regular, Open Sans"><tspan x="0" y="0">Андрей</tspan></text>
    <text id="г._Казань" data-name="г. Казань" transform="translate(56 337)" fill="#2d4057" font-size="14" font-family="OpenSans-Regular, Open Sans"><tspan x="0" y="0">г. Казань</tspan></text>
    <text id="ул._Кремлевская_2а" data-name="ул. Кремлевская, 2а" transform="translate(56 390)" fill="#2d4057" font-size="14" font-family="OpenSans-Regular, Open Sans"><tspan x="0" y="0">ул. Кремлевская, 2а</tspan></text>
    <text id="_7_937_615_08_87" data-name="+7 937 615 08 87" transform="translate(56 442.914)" fill="#2d4057" font-size="14" font-family="OpenSans-Regular, Open Sans"><tspan x="0" y="0">+7 937 615 08 87</tspan></text>
    <text id="marabaka_yandex.ru" data-name="marabaka@yandex.ru" transform="translate(56 495.914)" fill="#2d4057" font-size="14" font-family="OpenSans-Regular, Open Sans"><tspan x="0" y="0">marabaka@yandex.ru</tspan></text>
    <text id="_09.05.1987" data-name="09.05.1987" transform="translate(56 283.914)" fill="#2d4057" font-size="14" font-family="OpenSans-Regular, Open Sans"><tspan x="0" y="0">09.05.1987</tspan></text>
    <text id="Редактировать" transform="translate(156 595)" fill="#2d4057" font-size="14" font-family="OpenSans-Regular, Open Sans" opacity="0.7"><tspan x="0" y="0">Редактировать</tspan></text>
    <g id="Status_Bar" data-name="Status Bar" transform="translate(-3)">
      <g id="Battery" transform="translate(370 17)">
        <g id="Border" transform="translate(0 0.333)" fill="none" stroke="#000" stroke-miterlimit="10" stroke-width="1" opacity="0.35">
          <rect width="22" height="11.333" rx="2.667" stroke="none"/>
          <rect x="0.5" y="0.5" width="21" height="10.333" rx="2.167" fill="none"/>
        </g>
        <path id="Cap" d="M0,0V4A2.17,2.17,0,0,0,1.328,2,2.17,2.17,0,0,0,0,0" transform="translate(23 4)" opacity="0.4"/>
        <rect id="Capacity" width="18" height="7.333" rx="1.333" transform="translate(2 2.333)"/>
      </g>
      <path id="Wifi" d="M7.637,10.966a.313.313,0,0,1-.221-.093l-2-2.016a.313.313,0,0,1,.01-.456,3.421,3.421,0,0,1,4.419,0,.311.311,0,0,1,.1.226.315.315,0,0,1-.094.23l-2,2.016A.308.308,0,0,1,7.637,10.966Zm3.508-3.538a.312.312,0,0,1-.214-.085,4.9,4.9,0,0,0-6.585,0,.312.312,0,0,1-.214.085.308.308,0,0,1-.22-.091L2.758,6.17a.322.322,0,0,1,0-.459,7.158,7.158,0,0,1,9.752,0,.322.322,0,0,1,.1.229.326.326,0,0,1-.094.23L11.364,7.337A.309.309,0,0,1,11.145,7.428ZM13.8,4.743a.3.3,0,0,1-.214-.087,8.64,8.64,0,0,0-11.907,0,.3.3,0,0,1-.214.087.308.308,0,0,1-.22-.091L.094,3.486a.322.322,0,0,1,0-.456,10.9,10.9,0,0,1,15.08,0,.325.325,0,0,1,.1.228.319.319,0,0,1-.094.229L14.023,4.652A.307.307,0,0,1,13.8,4.743Z" transform="translate(349.694 17.331)"/>
      <path id="Cellular_Connection" data-name="Cellular Connection" d="M16,10.667H15a1,1,0,0,1-1-1V1a1,1,0,0,1,1-1h1a1,1,0,0,1,1,1V9.667A1,1,0,0,1,16,10.667Zm-4.667,0h-1a1,1,0,0,1-1-1V3.334a1,1,0,0,1,1-1h1a1,1,0,0,1,1,1V9.667A1,1,0,0,1,11.334,10.667Zm-4.667,0h-1a1,1,0,0,1-1-1v-4a1,1,0,0,1,1-1h1a1,1,0,0,1,1,1v4A1,1,0,0,1,6.666,10.667ZM2,10.667H1a1,1,0,0,1-1-1v-2a1,1,0,0,1,1-1H2a1,1,0,0,1,1,1v2A1,1,0,0,1,2,10.667Z" transform="translate(327.667 17.667)"/>
      <g id="Time_Style" data-name="Time Style" transform="translate(21 9)">
        <text id="_Time" data-name="↳ Time" transform="translate(0 5.33)" font-size="15" font-family="SFProText-Semibold, SF Pro Text" font-weight="600" letter-spacing="0em"><tspan x="10.893" y="14">9:41</tspan></text>
      </g>
    </g>
    <rect id="Rectangle_712" data-name="Rectangle 712" width="51" height="53" transform="translate(0 38)" fill="#fff" opacity="0"/>
  </g>
</svg>
